<?xml version="1.0" standalone="no"?>
<!DOCTYPE svg PUBLIC "-//W3C//DTD SVG 20010904//EN"
 "http://www.w3.org/TR/2001/REC-SVG-20010904/DTD/svg10.dtd">
<svg version="1.0" xmlns="http://www.w3.org/2000/svg"
 width="226.000000pt" height="273.000000pt" viewBox="0 0 226.000000 273.000000"
 preserveAspectRatio="xMidYMid meet">
<metadata>
Created by potrace 1.16, written by Peter Selinger 2001-2019
</metadata>
<g transform="translate(0.000000,273.000000) scale(0.100000,-0.100000)"
fill="#000000" stroke="none">
<path d="M1084 2667 c-46 -48 -127 -81 -239 -97 -142 -20 -232 -69 -283 -155
-29 -48 -37 -55 -65 -55 -82 0 -192 -92 -256 -213 -16 -31 -41 -72 -55 -90
-14 -19 -26 -37 -26 -40 0 -16 -98 -98 -123 -104 -38 -8 -44 -27 -19 -58 36
-46 45 -121 32 -266 -7 -72 -10 -156 -6 -186 8 -67 39 -143 72 -174 21 -20 24
-31 24 -94 0 -40 7 -91 15 -114 18 -52 111 -178 136 -186 11 -4 19 -11 19 -16
0 -5 18 -29 41 -54 42 -46 69 -112 69 -172 0 -35 -18 -70 -58 -113 -13 -14
-30 -38 -39 -55 -8 -16 -28 -44 -44 -61 -17 -17 -27 -37 -24 -45 19 -45 279
-192 400 -225 33 -9 101 -28 150 -42 84 -23 105 -25 320 -26 247 -1 245 -1
460 61 128 37 270 105 365 176 56 41 72 57 67 68 -1 3 -14 21 -29 40 -15 19
-55 71 -88 116 -60 81 -61 84 -54 130 12 85 22 101 162 250 89 96 116 156 118
262 1 74 3 86 23 102 12 10 33 42 47 73 25 55 25 58 22 278 -3 217 -2 224 20
259 30 49 28 56 -15 74 -41 17 -118 92 -148 145 -11 19 -33 59 -50 88 -56 99
-106 152 -171 183 -34 16 -72 29 -86 29 -19 0 -35 14 -66 58 -65 93 -135 131
-279 152 -110 15 -207 55 -247 101 -18 22 -37 39 -42 38 -5 0 -27 -19 -50 -42z
m72 -108 c13 -22 96 -51 230 -79 75 -16 151 -39 170 -51 40 -25 76 -69 98
-121 14 -36 18 -38 59 -38 55 0 133 -39 168 -82 14 -18 52 -78 84 -133 33 -56
82 -123 112 -152 l53 -52 -11 -53 c-7 -32 -9 -92 -6 -150 l6 -98 -64 0 c-57 0
-65 2 -65 19 0 25 -29 94 -44 103 -6 4 -34 8 -63 8 -43 0 -54 4 -70 24 -30 41
-148 97 -215 103 -32 3 -58 9 -58 12 0 3 7 15 15 25 31 41 12 86 -36 86 -40 0
-55 -24 -35 -55 27 -41 21 -57 -21 -53 -48 4 -52 22 -17 76 25 39 31 42 86 48
32 4 61 11 64 15 8 14 76 41 104 43 21 1 25 6 28 37 2 21 -3 42 -10 50 -7 8
-13 32 -13 54 0 40 0 40 -40 42 -22 1 -67 5 -100 8 -33 4 -89 9 -124 12 -36 3
-71 11 -78 19 -31 30 -53 11 -53 -45 0 -15 -7 -43 -16 -61 -27 -52 -23 -154 6
-215 14 -27 30 -54 36 -60 7 -5 14 -21 17 -35 10 -41 63 -96 171 -178 l101
-77 -76 -3 c-74 -3 -145 17 -120 33 20 12 11 25 -18 25 -22 0 -31 6 -41 30
-11 26 -10 33 5 50 17 19 17 20 1 20 -9 0 -15 -4 -11 -9 8 -14 -49 -51 -78
-51 -14 0 -32 9 -40 20 -13 19 -15 18 -47 -15 -25 -26 -36 -32 -42 -22 -5 7
-6 -53 -2 -135 6 -146 6 -148 -15 -148 -24 0 -26 20 -12 83 5 21 5 53 0 75
-10 44 0 180 12 160 5 -8 8 -3 6 16 -3 41 24 56 63 34 l29 -16 20 34 c21 35
41 45 41 19 0 -17 16 -20 25 -5 3 6 1 10 -4 10 -6 0 -11 7 -11 15 0 18 -5 19
-28 4 -13 -8 -28 -9 -48 -2 -23 8 -30 16 -32 42 -3 26 -7 31 -22 26 -13 -4
-22 1 -31 16 l-12 23 -17 -22 c-11 -14 -24 -20 -34 -16 -12 5 -16 -1 -16 -24
0 -24 -6 -32 -31 -42 -24 -10 -36 -11 -50 -2 -24 15 -29 15 -29 -2 0 -8 -5
-16 -12 -18 -9 -3 -9 -6 0 -12 8 -5 15 1 21 15 8 22 9 21 32 -18 22 -39 24
-40 46 -26 14 9 33 13 48 9 23 -6 25 -11 25 -61 0 -30 -4 -55 -9 -55 -5 0 -25
18 -45 40 -20 22 -38 40 -40 40 -2 0 -6 -9 -9 -20 -6 -25 -52 -27 -84 -5 -21
14 -22 13 -34 -20 -12 -31 -17 -35 -48 -35 -27 0 -32 -3 -23 -12 7 -7 12 -15
12 -19 0 -16 -62 -30 -128 -27 l-72 3 103 78 c58 43 114 92 127 109 13 18 25
26 29 20 4 -7 12 -8 21 -2 13 8 12 10 -3 10 -22 0 -16 30 14 72 10 15 19 34
19 42 0 8 5 16 11 18 31 10 34 203 3 229 -8 7 -14 30 -14 56 0 50 -20 66 -49
39 -12 -11 -36 -16 -73 -16 -30 0 -57 -3 -60 -6 -7 -6 -117 -16 -170 -15 -40
1 -44 -5 -39 -56 1 -13 -6 -34 -15 -47 -11 -18 -14 -35 -9 -57 6 -28 10 -30
35 -25 18 3 33 0 40 -9 7 -8 20 -15 30 -15 10 0 23 -6 29 -14 7 -8 38 -17 71
-21 52 -6 60 -10 70 -36 7 -15 18 -33 25 -39 7 -6 11 -20 8 -30 -4 -16 -14
-20 -44 -20 -43 0 -47 8 -23 50 22 37 12 60 -24 60 -49 0 -64 -40 -37 -102 6
-16 1 -18 -36 -18 -51 0 -190 -64 -228 -104 -20 -22 -34 -26 -77 -26 -59 0
-66 -6 -89 -77 l-17 -53 -58 0 -58 0 -4 153 -4 152 55 61 c31 33 81 103 111
154 90 155 128 188 230 199 53 6 56 7 80 53 55 102 96 126 278 162 82 16 137
33 174 54 59 33 74 37 84 21z m-216 -381 c0 -23 6 -49 14 -57 13 -15 32 -121
22 -121 -3 0 -12 12 -20 28 -20 36 -20 9 0 -30 15 -30 12 -78 -5 -78 -5 0 -12
16 -15 35 -4 19 -11 35 -16 35 -5 0 -2 -19 6 -42 15 -43 12 -88 -6 -88 -5 0
-14 -17 -20 -39 -13 -48 -58 -95 -183 -189 -178 -135 -239 -227 -245 -368 -3
-66 0 -88 17 -121 34 -68 111 -82 147 -27 16 24 16 26 0 42 -16 16 -19 16 -46
0 -27 -15 -45 -9 -20 7 16 10 12 19 -12 30 -14 6 -24 21 -26 38 -2 15 -1 27 1
27 17 0 102 -58 119 -81 27 -36 38 -37 39 -1 0 15 4 36 8 46 13 34 23 -1 12
-41 -12 -43 -3 -58 28 -48 14 4 24 18 28 36 4 23 10 29 27 27 18 -3 21 -9 19
-43 -2 -22 -5 -51 -8 -64 l-6 -24 -23 22 c-29 28 -41 26 -101 -9 -87 -52 -177
-35 -226 42 -17 29 -20 46 -17 129 3 88 7 103 41 173 26 52 59 96 103 141 36
36 61 65 57 65 -11 0 -114 -107 -141 -145 -18 -27 -25 -30 -61 -27 -26 3 -41
0 -41 -7 0 -6 16 -11 36 -11 46 0 41 -23 -7 -31 -30 -6 -31 -7 -6 -8 33 -1 36
-21 3 -21 -14 0 -28 -4 -31 -10 -4 -6 5 -10 20 -10 36 0 27 -23 -11 -31 l-29
-7 28 -1 c27 -1 40 -21 13 -21 -8 0 -21 -3 -30 -6 -14 -5 -16 4 -16 64 0 98
15 163 61 259 31 66 47 88 79 108 46 29 53 30 70 10 9 -11 33 -15 86 -15 41 0
74 -4 74 -9 0 -5 -14 -20 -31 -32 -29 -20 -42 -22 -138 -20 -70 1 -103 -1 -96
-8 6 -5 51 -11 102 -12 l91 -3 72 54 c95 70 155 163 120 185 -24 15 -43 74
-48 146 l-4 77 58 61 c32 34 64 61 71 61 9 0 13 -14 13 -42z m457 -7 c71 -68
77 -82 69 -159 -7 -69 -17 -94 -48 -128 -18 -21 -18 -24 -3 -60 21 -52 53 -84
161 -165 182 -136 264 -269 264 -429 -1 -154 -118 -225 -245 -150 -59 35 -79
37 -102 11 -22 -26 -33 -18 -33 23 0 17 -5 37 -12 44 -8 8 -8 15 2 27 19 23
33 18 50 -18 10 -20 24 -33 39 -35 22 -4 23 -2 16 46 -4 32 -3 52 4 57 7 4 11
-3 11 -17 0 -31 11 -68 20 -68 4 0 11 10 17 23 12 26 120 90 128 76 10 -16 -5
-48 -26 -54 -15 -5 -18 -12 -13 -33 7 -27 7 -27 -14 -9 -25 23 -62 15 -62 -13
0 -10 12 -28 26 -39 82 -64 165 36 150 180 -13 130 -76 219 -244 347 -132 101
-179 150 -188 199 -3 17 -13 34 -21 37 -15 6 -15 31 1 106 4 14 -1 9 -10 -12
-9 -21 -21 -38 -25 -38 -14 0 -10 59 6 90 9 17 12 30 7 30 -5 0 -14 -10 -21
-22 -9 -19 -10 -14 -6 32 4 30 13 65 21 77 8 12 14 38 14 58 0 19 4 35 8 35 5
0 31 -22 59 -49z m-537 14 c0 -8 -9 -19 -19 -25 -11 -5 -28 -24 -38 -40 -21
-36 -45 -38 -66 -7 -13 18 -16 19 -16 5 -1 -10 -4 -18 -7 -18 -4 0 -13 8 -20
18 -13 16 -13 16 -14 0 0 -22 -18 -24 -26 -3 -4 8 -10 15 -15 15 -4 0 -6 -7
-3 -15 7 -16 -6 -19 -43 -9 -18 5 -23 14 -23 38 0 30 2 32 38 33 109 2 163 7
168 15 3 4 23 8 45 8 28 0 39 -4 39 -15z m630 5 c0 -5 19 -9 43 -8 23 0 69 -2
102 -4 54 -5 60 -7 63 -28 3 -15 -3 -29 -14 -37 -25 -19 -54 -16 -54 5 -1 16
-1 16 -14 0 -16 -22 -38 -24 -30 -3 4 8 2 15 -4 15 -5 0 -12 -7 -16 -15 -8
-21 -27 -19 -20 3 4 13 1 12 -14 -5 -11 -13 -26 -23 -32 -23 -12 0 -99 89
-100 103 0 4 20 7 45 7 25 0 45 -4 45 -10z m-850 -108 c0 -4 -5 -13 -12 -20
-9 -9 -9 -12 0 -12 7 0 15 7 18 15 4 8 15 15 25 15 17 0 18 -3 9 -21 -17 -30
-6 -34 14 -4 20 30 42 35 26 6 -18 -34 -11 -37 13 -7 36 44 53 30 55 -43 l2
-62 -53 7 c-29 4 -58 13 -65 23 -7 9 -18 15 -24 13 -6 -2 -18 4 -28 13 -12 11
-26 14 -43 10 -22 -6 -27 -3 -33 19 -9 37 11 56 57 56 22 0 39 -4 39 -8z
m1075 -32 c0 -31 -3 -35 -23 -33 -13 2 -34 -4 -48 -13 -13 -9 -27 -14 -31 -11
-3 3 -13 -2 -22 -12 -20 -24 -109 -38 -116 -19 -2 7 -1 35 3 63 8 58 34 73 53
31 7 -14 16 -26 21 -26 5 0 4 9 -2 19 -22 41 2 44 25 4 l16 -28 -6 28 c-6 32
9 36 38 10 19 -17 19 -17 12 5 -6 22 -5 23 37 20 42 -3 43 -4 43 -38z m44
-320 c22 -11 45 -33 55 -52 9 -18 20 -40 25 -48 40 -72 54 -127 67 -269 6 -67
5 -73 -11 -68 -9 4 -23 7 -31 7 -23 0 -16 18 9 23 19 4 18 4 -5 6 -33 1 -39
31 -7 31 11 0 17 5 14 10 -3 6 -18 10 -33 10 -31 0 -19 16 18 23 22 4 21 4 -6
6 -17 0 -37 8 -44 16 -11 13 -7 15 29 15 24 0 41 5 41 11 0 8 -15 10 -43 7
-42 -5 -43 -4 -77 44 -18 27 -56 69 -84 94 l-51 44 88 0 c56 0 87 4 87 11 0 7
-33 10 -99 8 -91 -3 -102 -1 -134 21 -20 14 -33 28 -31 32 3 4 36 8 73 8 44 0
74 5 87 15 24 18 18 18 63 -5z m-1329 -64 c0 -1 -11 -24 -25 -51 -14 -26 -33
-80 -42 -121 l-16 -74 -34 0 c-33 0 -34 2 -31 32 2 27 8 34 33 39 l30 7 -35 1
c-40 1 -30 17 15 24 l30 4 -32 2 c-26 1 -33 5 -33 21 0 16 7 20 38 22 l37 1
-38 4 c-47 5 -45 25 4 34 30 6 31 7 7 8 -32 1 -38 24 -10 40 15 10 102 16 102
7z m1504 -2 c27 -10 19 -42 -11 -47 -23 -3 -21 -4 10 -6 48 -1 53 -30 5 -32
l-33 -2 35 -6 c22 -4 35 -12 35 -21 0 -9 -13 -17 -35 -21 l-35 -6 38 -2 c45
-1 50 -20 5 -22 -28 -2 -29 -2 -8 -6 35 -7 50 -21 50 -49 0 -21 -5 -24 -38
-24 l-39 0 -12 68 c-7 37 -23 90 -37 119 -13 28 -24 54 -24 57 0 8 74 8 94 0z
m-886 -557 c8 -21 12 -40 9 -43 -3 -3 -25 -10 -49 -15 -64 -15 -196 -82 -253
-130 -27 -23 -61 -45 -74 -50 -50 -19 -96 48 -56 81 8 7 31 10 52 8 34 -4 41
0 93 52 55 57 128 102 205 126 52 16 55 15 73 -29z m318 -1 c32 -15 84 -53
122 -89 61 -59 70 -64 103 -60 54 7 86 -32 57 -69 -23 -29 -52 -30 -89 -4
-131 95 -181 123 -265 151 l-92 31 22 37 c19 35 24 38 54 33 18 -3 58 -16 88
-30z m-646 -286 c0 -20 7 -20 414 -20 409 0 414 0 409 20 -5 19 0 20 93 20
l97 0 -23 -25 -23 -25 21 -23 c12 -13 22 -26 22 -30 0 -4 -27 -7 -60 -7 l-60
0 0 35 c0 19 -3 35 -7 35 -5 0 -6 -25 -5 -55 l4 -55 -466 0 -466 0 -1 58 c-1
48 -3 51 -8 22 -6 -35 -6 -35 -63 -38 -32 -2 -58 0 -58 4 0 4 10 18 22 31 l21
23 -23 25 -23 25 91 0 c85 0 92 -1 92 -20z m10 -298 c168 -80 234 -93 338 -67
64 15 74 15 123 1 29 -9 66 -16 83 -16 55 0 160 32 252 76 96 47 178 63 250
49 l38 -7 -24 -19 c-30 -23 -177 -96 -245 -121 -131 -49 -244 -68 -410 -68
-167 0 -268 16 -395 63 -75 27 -219 96 -253 121 -25 18 -26 21 -10 28 10 4 52
6 93 4 62 -4 90 -11 160 -44z m-214 -42 c371 -217 867 -217 1238 0 37 22 72
40 77 40 10 0 139 -179 139 -195 0 -18 -156 -115 -251 -156 -365 -158 -803
-158 -1168 0 -98 42 -251 138 -251 158 0 15 129 193 140 193 4 0 39 -18 76
-40z"/>
<path d="M383 416 c-29 -41 -53 -79 -53 -85 0 -28 184 -131 323 -180 167 -59
270 -75 482 -75 212 0 315 16 482 75 139 49 323 152 323 180 0 8 -79 126 -106
158 -2 2 -54 -21 -116 -52 -212 -106 -360 -142 -583 -142 -221 0 -381 39 -584
142 -58 29 -107 53 -110 53 -3 0 -30 -34 -58 -74z m1433 -78 c13 -30 15 -41 6
-50 -12 -12 -17 -11 -86 18 -16 6 -18 4 -11 -12 4 -10 8 -28 9 -39 2 -39 -26
-19 -60 42 -34 60 -35 62 -15 73 16 8 29 6 61 -10 45 -23 46 -21 25 20 -14 26
-13 30 2 39 20 10 37 -10 69 -81z m-1212 17 c3 -9 -3 -24 -14 -35 -11 -11 -17
-26 -14 -35 7 -18 -13 -45 -34 -45 -20 0 -102 42 -102 52 0 5 14 35 30 68 l30
60 49 -24 c27 -14 51 -32 55 -41z m1040 -74 c25 -30 46 -59 46 -64 0 -5 -17
-7 -37 -4 -42 7 -56 1 -66 -25 -3 -10 -16 -18 -27 -18 -18 0 -20 6 -20 75 0
69 2 76 23 85 30 12 28 13 81 -49z m-826 -21 c20 -48 28 -50 37 -10 7 30 31
41 41 17 2 -7 -2 -40 -9 -72 -12 -52 -17 -60 -37 -60 -19 0 -26 9 -38 43 -14
44 -32 48 -32 6 0 -26 -25 -43 -40 -28 -5 5 -2 39 7 77 12 55 19 67 35 67 13
0 25 -13 36 -40z m201 -1 c50 -17 40 -39 -16 -36 l-48 2 0 -34 c0 -39 26 -64
47 -43 9 9 8 15 -7 25 -24 19 -4 31 36 22 27 -6 30 -10 24 -33 -11 -49 -62
-66 -114 -39 -65 33 -39 142 35 146 6 1 25 -4 43 -10z m343 -51 c18 -35 34
-66 36 -69 6 -13 -38 -16 -48 -4 -13 15 -51 8 -63 -12 -5 -8 -27 -13 -58 -13
-43 0 -51 3 -61 25 -13 30 -32 28 -36 -3 -2 -16 -10 -22 -28 -22 -23 0 -24 2
-24 75 0 68 2 75 20 75 15 0 20 -7 20 -25 0 -14 4 -25 9 -25 5 0 16 11 25 25
12 18 25 25 48 25 l32 0 -28 -29 -28 -29 27 -41 c31 -46 40 -46 49 1 18 91 26
108 51 108 20 0 31 -12 57 -62z"/>
</g>
</svg>
